<?xml version="1.0" encoding="UTF-8"?>
<svg xmlns="http://www.w3.org/2000/svg" viewBox="0 0 64 64" width="64px" height="64px">
<g id="surface38525577">
<path style=" stroke:none;fill-rule:nonzero;fill:rgb(90.588236%,29.803923%,23.529412%);fill-opacity:1;" d="M 44.308594 2 C 44.226562 2.003906 44.164062 2.027344 44.121094 2.066406 L 36.691406 10.890625 L 35.175781 16.101562 C 34.144531 16.066406 33.082031 16.054688 31.992188 16.054688 C 24.269531 16.054688 18 16.871094 18 17.886719 C 18 20.308594 45.980469 20.308594 45.980469 17.886719 C 45.980469 17.136719 42.628906 16.503906 37.800781 16.203125 L 39 11.914062 L 45.949219 3.554688 L 45.960938 3.542969 C 46.117188 3.382812 45.8125 2.894531 45.316406 2.46875 C 44.945312 2.148438 44.554688 1.992188 44.308594 2 Z M 34.605469 18.152344 L 34.578125 18.234375 C 34.566406 18.246094 34.566406 18.257812 34.566406 18.269531 C 34.566406 18.417969 35.171875 18.542969 35.910156 18.542969 C 36.648438 18.542969 37.257812 18.417969 37.257812 18.269531 L 37.28125 18.175781 C 37.476562 18.246094 37.582031 18.324219 37.582031 18.417969 C 37.582031 18.660156 36.832031 18.859375 35.898438 18.847656 C 34.992188 18.847656 34.238281 18.664062 34.238281 18.421875 C 34.238281 18.316406 34.386719 18.222656 34.605469 18.152344 Z M 45.824219 18.839844 C 42.121094 20.8125 21.898438 20.828125 18.183594 18.867188 L 19.828125 33.332031 C 20.542969 31.027344 22.347656 27.914062 24.671875 26.96875 C 25.433594 26.65625 26.207031 26.660156 26.933594 27.074219 C 27.5625 27.421875 28.097656 28.144531 28.15625 28.433594 C 28.300781 29.183594 27.914062 29.480469 27.613281 29.480469 C 27.25 29.480469 26.972656 28.953125 26.789062 28.640625 C 26.292969 27.796875 25.542969 27.761719 24.742188 28.316406 C 23.90625 28.890625 23.179688 29.859375 22.671875 30.703125 C 22.054688 31.71875 21.53125 32.835938 21.21875 33.953125 C 21.035156 34.597656 20.871094 35.632812 21.148438 36.246094 C 21.269531 36.5 21.449219 36.660156 21.742188 36.660156 C 22.347656 36.660156 23.226562 35.898438 23.652344 35.496094 C 24.195312 34.976562 24.898438 34.171875 25.164062 33.652344 L 25.796875 31.867188 C 26.109375 31.082031 26.992188 31.222656 26.992188 31.867188 C 26.992188 33.042969 26.546875 33.433594 25.785156 35.867188 C 25.082031 38.113281 24.863281 38.84375 24.863281 38.84375 C 24.777344 39.164062 24.453125 39.707031 24.101562 39.707031 C 23.957031 39.707031 23.847656 39.660156 23.789062 39.566406 C 23.667969 39.40625 23.679688 38.960938 23.691406 38.84375 C 23.714844 38.476562 24.453125 36.285156 24.574219 35.9375 C 24.332031 36.191406 24.078125 36.445312 23.800781 36.699219 C 23.148438 37.289062 22.09375 38.058594 21.199219 38.058594 C 20.789062 38.058594 20.523438 37.953125 20.269531 37.78125 L 21.1875 46.957031 C 21.429688 47.53125 25.933594 48.929688 31.863281 48.929688 C 37.804688 48.929688 42.304688 47.523438 42.535156 46.957031 L 43.855469 36.054688 C 43.164062 36.65625 42.367188 37.394531 41.484375 37.761719 C 40.832031 38.027344 39.378906 38.199219 39.378906 37.101562 C 39.378906 36.5 40.480469 35.398438 41.121094 34.625 C 41.292969 34.429688 41.6875 33.945312 41.6875 33.691406 C 41.6875 33.355469 40.964844 33.433594 40.273438 33.976562 C 39.886719 34.289062 39.519531 34.707031 39.21875 35.097656 C 38.699219 35.789062 38.421875 36.386719 38.191406 36.882812 C 37.441406 38.519531 37.695312 37.875 37.089844 39.417969 C 36.484375 40.953125 36.582031 40.777344 36.460938 41.03125 C 36.351562 41.25 36.195312 41.4375 35.976562 41.550781 C 35.746094 41.667969 35.433594 41.652344 35.238281 41.515625 C 35.128906 41.445312 35.078125 41.296875 35.078125 41.089844 C 35.078125 40.984375 35.09375 40.882812 35.117188 40.777344 C 35.300781 40.074219 36.0625 38.691406 36.933594 36.824219 C 37.128906 36.398438 37.054688 36.523438 37.027344 36.558594 C 36.277344 37.25 35.707031 37.585938 35.285156 37.769531 C 34.582031 38.070312 33.710938 38.070312 33.53125 37.296875 C 33.519531 37.25 33.519531 37.203125 33.507812 37.15625 C 32.078125 38.214844 30.566406 38.503906 31.089844 36.222656 C 30.535156 37.167969 29.5625 37.941406 28.375 37.941406 C 27.878906 37.941406 27.515625 37.78125 27.335938 37.355469 C 27.058594 36.722656 27.492188 35.636719 27.890625 34.609375 C 28.097656 34.089844 28.378906 33.46875 28.753906 32.742188 C 28.949219 32.351562 29.261719 32.117188 29.671875 32.222656 C 29.742188 32.246094 29.808594 32.269531 29.867188 32.304688 C 30.179688 32.511719 30.058594 32.820312 29.902344 33.132812 C 29.441406 33.996094 29.042969 34.632812 28.777344 35.53125 C 28.667969 35.910156 28.53125 36.570312 28.957031 36.570312 C 29.246094 36.570312 29.523438 36.476562 29.792969 36.292969 C 30.347656 35.902344 30.796875 35.3125 31.136719 34.738281 C 31.378906 34.324219 31.671875 33.78125 31.816406 33.320312 C 31.875 33.125 31.949219 32.941406 32.035156 32.765625 C 32.167969 32.476562 32.347656 32.179688 32.664062 32.179688 C 32.820312 32.179688 32.953125 32.238281 33.050781 32.351562 C 33.257812 32.605469 33.210938 32.867188 33.101562 33.144531 C 32.859375 33.789062 32.535156 34.367188 32.265625 35.070312 C 32.109375 35.472656 31.9375 35.992188 31.9375 36.417969 C 31.9375 36.808594 32.386719 36.714844 32.761719 36.554688 C 33.050781 36.429688 33.34375 36.234375 33.585938 36.039062 C 33.730469 35.476562 33.691406 35.601562 36.78125 28.175781 C 36.9375 27.796875 37.230469 27.632812 37.519531 27.632812 C 37.664062 27.632812 37.785156 27.683594 37.90625 27.761719 C 38.113281 27.910156 38.117188 28.230469 38.03125 28.472656 C 37.945312 28.691406 37.957031 28.625 37.484375 29.683594 C 36.855469 31.078125 36.445312 32.082031 35.886719 33.363281 C 35.65625 33.894531 34.957031 35.542969 34.835938 35.933594 C 34.765625 36.1875 34.675781 36.601562 34.957031 36.601562 C 35.609375 36.601562 37.292969 35.089844 37.753906 34.640625 C 37.777344 34.605469 37.816406 34.59375 37.863281 34.570312 C 37.933594 34.351562 38.007812 34.144531 38.066406 33.9375 C 38.238281 33.5 38.394531 32.988281 38.710938 32.632812 C 38.808594 32.515625 38.914062 32.449219 39.035156 32.449219 C 39.375 32.449219 39.542969 32.585938 39.542969 32.910156 C 39.542969 33.035156 39.460938 33.5 39.410156 33.625 C 39.582031 33.453125 39.757812 33.28125 39.953125 33.109375 C 41.769531 31.507812 43.0625 32.324219 43.0625 33.132812 C 43.0625 33.984375 41.988281 35.171875 41.394531 35.828125 C 41.199219 36.046875 40.800781 36.449219 40.789062 36.566406 C 40.789062 36.714844 40.898438 36.777344 41.054688 36.777344 C 41.296875 36.777344 41.828125 36.371094 42.023438 36.234375 C 42.628906 35.785156 43.449219 35.09375 44.03125 34.609375 Z M 21.859375 48.0625 L 23.664062 50.992188 L 24.367188 60.144531 C 24.367188 61.171875 27.792969 62 32.003906 62 C 36.214844 62 39.640625 61.171875 39.640625 60.144531 L 40.199219 50.898438 L 41.902344 48.0625 C 37.109375 49.988281 26.847656 50.054688 21.859375 48.0625 Z M 21.859375 48.0625 "/>
</g>
</svg>
