<svg id="Layer_5" enable-background="new 0 0 64 64" height="512" viewBox="0 0 64 64" width="512" xmlns="http://www.w3.org/2000/svg" xmlns:xlink="http://www.w3.org/1999/xlink"><linearGradient id="SVGID_1_" gradientUnits="userSpaceOnUse" x1="32" x2="32" y1="63" y2="1"><stop offset="0" stop-color="#9f2fff"/><stop offset="1" stop-color="#0bb1d3"/></linearGradient><path d="m21 25v-10c0-2.206-1.794-4-4-4s-4 1.794-4 4v10h2v-4h4v4zm-6-6v-4c0-1.103.897-2 2-2s2 .897 2 2v4zm12 0c2.206 0 4-1.794 4-4s-1.794-4-4-4h-4v14h2v-6zm-2-6h2c1.103 0 2 .897 2 2s-.897 2-2 2h-2zm9 10v-10h-2v-2h6v2h-2v10h2v2h-6v-2zm24.984 8.256 1.425-2.302-5.363-5.363-2.302 1.425c-.598-.332-1.223-.609-1.858-.862.073-.374.114-.759.114-1.154 0-2.969-2.169-5.434-5.005-5.91 0-.031.005-.06.005-.09 0-5.514-4.486-10-10-10-1.26 0-2.482.232-3.645.691-2.279-4.095-6.634-6.691-11.355-6.691-6.852 0-12.469 5.332-12.952 12.062-3.964.473-7.048 3.85-7.048 7.938 0 4.411 3.589 8 8 8h2v11.382l-4 2v6.618h2v-5.382l4-2v-14.618h-4c-3.309 0-6-2.691-6-6s2.691-6 6-6c.585 0 1.162.083 1.714.249l.571-1.917c-.405-.12-.819-.201-1.239-.256.473-5.634 5.201-10.076 10.954-10.076 4.275 0 8.195 2.518 9.988 6.414l.437.949.929-.477c1.144-.588 2.371-.886 3.646-.886 4.411 0 8 3.589 8 8 0 .029-.004.058-.005.087-.924.155-1.797.522-2.564 1.089l1.19 1.607c.693-.512 1.515-.783 2.379-.783 2.206 0 4 1.794 4 4s-1.794 4-4 4h-26v14.618l4 2v5.382h2v-6.618l-4-2v-11.382h9.259l.818 2.147c-.615 1.087-1.098 2.24-1.442 3.44l-2.635.621v7.584l2.635.62c.333 1.16.795 2.276 1.381 3.332l-1.425 2.302 5.363 5.363 2.302-1.425c1.056.586 2.172 1.049 3.332 1.381l.62 2.635h7.584l.62-2.634c1.16-.333 2.276-.795 3.332-1.381l2.302 1.425 5.363-5.363-1.425-2.302c.586-1.056 1.049-2.172 1.381-3.332l2.635-.621v-7.584l-2.635-.62c-.332-1.16-.795-2.276-1.381-3.332zm2.016 9.952-2.272.535-.146.595c-.337 1.376-.882 2.689-1.619 3.904l-.318.524 1.229 1.986-3.123 3.123-1.986-1.229-.524.318c-1.214.737-2.528 1.281-3.904 1.619l-.595.146-.534 2.271h-4.416l-.535-2.272-.595-.146c-1.376-.337-2.689-.882-3.904-1.619l-.524-.318-1.986 1.229-3.123-3.123 1.229-1.986-.318-.524c-.736-1.213-1.281-2.527-1.619-3.904l-.146-.595-2.271-.534v-4.416l2.272-.535.146-.595c.338-1.377.882-2.691 1.619-3.904l.253-.417-.891-2.341h5.982c-3.239 2.151-5.381 5.829-5.381 10 0 6.617 5.383 12 12 12s12-5.383 12-12c0-5.284-3.437-9.772-8.189-11.369.543-.448 1.001-.992 1.36-1.602.714.285 1.413.609 2.071 1.008l.524.318 1.987-1.229 3.123 3.123-1.229 1.986.318.524c.736 1.213 1.281 2.527 1.619 3.904l.146.595 2.27.534zm-16-12.208c5.514 0 10 4.486 10 10s-4.486 10-10 10-10-4.486-10-10 4.486-10 10-10zm0 18c4.411 0 8-3.589 8-8s-3.589-8-8-8-8 3.589-8 8 3.589 8 8 8zm0-14c3.309 0 6 2.691 6 6s-2.691 6-6 6-6-2.691-6-6 2.691-6 6-6zm-38 24.184c-1.161.414-2 1.514-2 2.816 0 1.654 1.346 3 3 3s3-1.346 3-3c0-1.302-.839-2.402-2-2.816v-2.184h-2zm1 3.816c-.551 0-1-.449-1-1s.449-1 1-1 1 .449 1 1-.449 1-1 1zm1-8h-2v-2h2zm14 4.184c-1.161.414-2 1.514-2 2.816 0 1.654 1.346 3 3 3s3-1.346 3-3c0-1.302-.839-2.402-2-2.816v-2.184h-2zm1 3.816c-.551 0-1-.449-1-1s.449-1 1-1 1 .449 1 1-.449 1-1 1zm1-8h-2v-2h2zm-9 3c1.654 0 3-1.346 3-3 0-1.302-.839-2.402-2-2.816v-11.184h-2v11.184c-1.161.414-2 1.514-2 2.816 0 1.654 1.346 3 3 3zm0-4c.551 0 1 .449 1 1s-.449 1-1 1-1-.449-1-1 .449-1 1-1zm1-23h-2v-2h2zm0 4h-2v-2h2zm-2 2h2v2h-2z" fill="url(#SVGID_1_)"/></svg>